<?xml version="1.0" encoding="UTF-8" standalone="no"?>
<svg
   xmlns:dc="http://purl.org/dc/elements/1.1/"
   xmlns:cc="http://creativecommons.org/ns#"
   xmlns:rdf="http://www.w3.org/1999/02/22-rdf-syntax-ns#"
   xmlns:svg="http://www.w3.org/2000/svg"
   xmlns="http://www.w3.org/2000/svg"
   xmlns:sodipodi="http://sodipodi.sourceforge.net/DTD/sodipodi-0.dtd"
   xmlns:inkscape="http://www.inkscape.org/namespaces/inkscape"
   id="svg4541"
   version="1.1"
   viewBox="0 0 23.8125 100.54168"
   height="380"
   width="90"
   sodipodi:docname="Tick.svg"
   inkscape:version="0.92.1 r15371">
  <sodipodi:namedview
     pagecolor="#ffffff"
     bordercolor="#666666"
     borderopacity="1"
     objecttolerance="10"
     gridtolerance="10"
     guidetolerance="10"
     inkscape:pageopacity="0"
     inkscape:pageshadow="2"
     inkscape:window-width="1920"
     inkscape:window-height="1033"
     id="namedview10"
     showgrid="false"
     units="px"
     inkscape:snap-text-baseline="false"
     inkscape:zoom="2.828427"
     inkscape:cx="-114.112"
     inkscape:cy="143.55768"
     inkscape:window-x="-4"
     inkscape:window-y="-4"
     inkscape:window-maximized="1"
     inkscape:current-layer="svg4541"
     inkscape:snap-bbox="true"
     inkscape:snap-bbox-edge-midpoints="true"
     inkscape:bbox-nodes="true"
     inkscape:snap-midpoints="true"
     inkscape:snap-smooth-nodes="true"
     inkscape:object-paths="false"
     inkscape:snap-others="true"
     inkscape:snap-nodes="true"
     inkscape:snap-global="true"
     inkscape:snap-object-midpoints="true" />
  <defs
     id="defs4535" />
  <metadata
     id="metadata4538">
    <rdf:RDF>
      <cc:Work
         rdf:about="">
        <dc:format>image/svg+xml</dc:format>
        <dc:type
           rdf:resource="http://purl.org/dc/dcmitype/StillImage" />
        <dc:title />
      </cc:Work>
    </rdf:RDF>
  </metadata>
  <rect
     id="rect3743"
     width="23.812502"
     height="100.54167"
     x="0"
     y="1.5804033e-06"
     style="fill:#e6e6e6;fill-opacity:1;stroke-width:0.24495658" />
  <g
     id="g3826"
     style="display:inline">
    <g
       id="text3688"
       style="font-style:normal;font-variant:normal;font-weight:normal;font-stretch:normal;font-size:2.82222247px;line-height:125%;font-family:Courier;-inkscape-font-specification:'Courier, Normal';font-variant-ligatures:normal;font-variant-caps:normal;font-variant-numeric:normal;font-feature-settings:normal;text-align:start;letter-spacing:0px;word-spacing:0px;writing-mode:lr-tb;text-anchor:start;fill:#000000;fill-opacity:1;stroke:none;stroke-width:0.26458335px;stroke-linecap:butt;stroke-linejoin:miter;stroke-opacity:1"
       aria-label="by luckyxxl"
       transform="translate(-3.9687974)">
      <path
         inkscape:connector-curvature="0"
         id="path3711"
         style="font-style:normal;font-variant:normal;font-weight:normal;font-stretch:normal;font-size:2.82222247px;font-family:Courier;-inkscape-font-specification:'Courier, Normal';font-variant-ligatures:normal;font-variant-caps:normal;font-variant-numeric:normal;font-feature-settings:normal;text-align:start;writing-mode:lr-tb;text-anchor:start;stroke-width:0.26458335px"
         d="M 9.0514436,4.803625 V 4.9362694 L 9.3110881,4.9221583 V 6.4207584 H 9.0853103 V 6.5534029 H 9.4521992 V 6.3360918 c 0.064911,0.0762 0.2003778,0.2455333 0.4995334,0.2455333 0.3668894,0 0.6208894,-0.3104444 0.6208894,-0.6237111 0,-0.3499556 -0.285045,-0.6293557 -0.6321783,-0.6293557 -0.2060222,0 -0.3668889,0.095956 -0.4826,0.2483556 h -0.00564 V 4.778225 Z m 0.4035779,1.1486445 c 0,-0.2568222 0.2144889,-0.4826 0.4910667,-0.4826 0.2737558,0 0.4741338,0.2257778 0.4741338,0.4854222 0,0.2568223 -0.191912,0.4854223 -0.4713116,0.4854223 -0.2822223,0 -0.4938889,-0.2257778 -0.4938889,-0.4882445 z" />
      <path
         inkscape:connector-curvature="0"
         id="path3713"
         style="font-style:normal;font-variant:normal;font-weight:normal;font-stretch:normal;font-size:2.82222247px;font-family:Courier;-inkscape-font-specification:'Courier, Normal';font-variant-ligatures:normal;font-variant-caps:normal;font-variant-numeric:normal;font-feature-settings:normal;text-align:start;writing-mode:lr-tb;text-anchor:start;stroke-width:0.26458335px"
         d="m 10.797297,5.3398472 v 0.1326445 h 0.172156 l 0.524933,1.0047112 -0.217311,0.3753556 h -0.434623 v 0.1326444 h 0.846667 V 6.8525585 h -0.251178 l 0.790223,-1.3800668 h 0.163689 V 5.3398472 h -0.516467 v 0.1326445 h 0.191911 L 11.57623,6.3304473 11.130319,5.4724917 h 0.194734 V 5.3398472 Z" />
      <path
         inkscape:connector-curvature="0"
         id="path3715"
         style="font-style:normal;font-variant:normal;font-weight:normal;font-stretch:normal;font-size:2.82222247px;font-family:Courier;-inkscape-font-specification:'Courier, Normal';font-variant-ligatures:normal;font-variant-caps:normal;font-variant-numeric:normal;font-feature-settings:normal;text-align:start;writing-mode:lr-tb;text-anchor:start;stroke-width:0.26458335px"
         d="m 14.416003,4.8685361 0.01411,0.1298222 0.460022,-0.033867 V 6.4207584 H 14.39907 v 0.1326445 h 1.123245 V 6.4207584 H 15.031248 V 4.829025 Z" />
      <path
         inkscape:connector-curvature="0"
         id="path3717"
         style="font-style:normal;font-variant:normal;font-weight:normal;font-stretch:normal;font-size:2.82222247px;font-family:Courier;-inkscape-font-specification:'Courier, Normal';font-variant-ligatures:normal;font-variant-caps:normal;font-variant-numeric:normal;font-feature-settings:normal;text-align:start;writing-mode:lr-tb;text-anchor:start;stroke-width:0.26458335px"
         d="m 15.896568,5.3398472 v 0.1326445 h 0.231422 v 0.6152445 c 0,0.2229556 0.07902,0.5051778 0.434622,0.5051778 0.217312,0 0.364067,-0.1241778 0.443089,-0.1947333 v 0.1552222 h 0.369711 V 6.4207584 h -0.2286 V 5.3398472 H 16.76299 v 0.1326445 h 0.242711 v 0.7337778 c -0.1524,0.1693334 -0.299155,0.2455334 -0.454377,0.2455334 -0.282223,0 -0.282223,-0.2906889 -0.282223,-0.3640667 v -0.747889 z" />
      <path
         inkscape:connector-curvature="0"
         id="path3719"
         style="font-style:normal;font-variant:normal;font-weight:normal;font-stretch:normal;font-size:2.82222247px;font-family:Courier;-inkscape-font-specification:'Courier, Normal';font-variant-ligatures:normal;font-variant-caps:normal;font-variant-numeric:normal;font-feature-settings:normal;text-align:start;writing-mode:lr-tb;text-anchor:start;stroke-width:0.26458335px"
         d="m 18.844688,5.3031583 c -0.0085,0.036689 -0.01411,0.067733 -0.01693,0.090311 -0.0028,0.016933 -0.01411,0.062089 -0.02822,0.062089 -0.0028,0 -0.0085,-0.00564 -0.01129,-0.00847 -0.163689,-0.1354667 -0.307622,-0.1495778 -0.414867,-0.1495778 -0.460022,0 -0.674511,0.3443111 -0.674511,0.6462889 0,0.3584223 0.268111,0.6491112 0.663223,0.6491112 0.313266,0 0.564444,-0.1834444 0.6858,-0.2737556 L 18.97451,6.211914 c -0.206022,0.1439333 -0.400756,0.2398889 -0.598311,0.2398889 -0.369711,0 -0.524934,-0.2765778 -0.524934,-0.5108223 0,-0.2427111 0.172156,-0.5023556 0.536223,-0.5023556 0.364066,0 0.409222,0.2144889 0.428977,0.2963334 l 0.01129,0.047978 0.129822,-0.019756 c -0.0056,-0.073378 -0.0085,-0.1326444 -0.0085,-0.1862667 0,-0.098778 0.01693,-0.2032 0.0254,-0.2596444 z" />
      <path
         inkscape:connector-curvature="0"
         id="path3721"
         style="font-style:normal;font-variant:normal;font-weight:normal;font-stretch:normal;font-size:2.82222247px;font-family:Courier;-inkscape-font-specification:'Courier, Normal';font-variant-ligatures:normal;font-variant-caps:normal;font-variant-numeric:normal;font-feature-settings:normal;text-align:start;writing-mode:lr-tb;text-anchor:start;stroke-width:0.26458335px"
         d="m 19.292319,4.8149139 0.01129,0.1326444 0.268111,-0.022578 V 6.4207584 H 19.337474 V 6.5534029 H 19.71283 V 6.0369362 l 0.158044,-0.1213556 c 0.273756,0.254 0.386645,0.3668889 0.502356,0.5051778 H 20.192608 V 6.5534029 H 20.77963 V 6.4207584 h -0.237067 c -0.1016,-0.1298222 -0.335844,-0.3781778 -0.564444,-0.5842 l 0.474133,-0.3640667 h 0.220133 V 5.3398472 h -0.589844 v 0.1326445 h 0.158044 v 0.00564 l -0.527755,0.40076 V 4.778225 Z" />
      <path
         inkscape:connector-curvature="0"
         id="path3723"
         style="font-style:normal;font-variant:normal;font-weight:normal;font-stretch:normal;font-size:2.82222247px;font-family:Courier;-inkscape-font-specification:'Courier, Normal';font-variant-ligatures:normal;font-variant-caps:normal;font-variant-numeric:normal;font-feature-settings:normal;text-align:start;writing-mode:lr-tb;text-anchor:start;stroke-width:0.26458335px"
         d="m 20.950683,5.3398472 v 0.1326445 h 0.172156 l 0.524933,1.0047112 -0.217311,0.3753556 h -0.434622 v 0.1326444 h 0.846666 V 6.8525585 H 21.591328 L 22.38155,5.4724917 h 0.163689 V 5.3398472 h -0.516467 v 0.1326445 h 0.191911 L 21.729617,6.3304473 21.283705,5.4724917 h 0.194734 V 5.3398472 Z" />
      <path
         inkscape:connector-curvature="0"
         id="path3725"
         style="font-style:normal;font-variant:normal;font-weight:normal;font-stretch:normal;font-size:2.82222247px;font-family:Courier;-inkscape-font-specification:'Courier, Normal';font-variant-ligatures:normal;font-variant-caps:normal;font-variant-numeric:normal;font-feature-settings:normal;text-align:start;writing-mode:lr-tb;text-anchor:start;stroke-width:0.26458335px"
         d="m 22.690892,5.3398472 v 0.1326445 h 0.180622 l 0.448734,0.4459111 -0.496711,0.5023556 h -0.174978 v 0.1326445 h 0.555978 V 6.4207584 h -0.197556 l 0.409222,-0.4120444 0.4064,0.4120444 h -0.200377 v 0.1326445 h 0.572911 V 6.4207584 h -0.1778 l -0.508,-0.5023556 0.443089,-0.4459111 h 0.172155 V 5.3398472 h -0.519289 v 0.1326445 h 0.163689 L 23.416203,5.8252695 23.063425,5.4724917 h 0.172156 V 5.3398472 Z" />
      <path
         inkscape:connector-curvature="0"
         id="path3727"
         style="font-style:normal;font-variant:normal;font-weight:normal;font-stretch:normal;font-size:2.82222247px;font-family:Courier;-inkscape-font-specification:'Courier, Normal';font-variant-ligatures:normal;font-variant-caps:normal;font-variant-numeric:normal;font-feature-settings:normal;text-align:start;writing-mode:lr-tb;text-anchor:start;stroke-width:0.26458335px"
         d="m 24.383123,5.3398472 v 0.1326445 h 0.180623 l 0.448733,0.4459111 -0.496711,0.5023556 H 24.34079 v 0.1326445 h 0.555978 V 6.4207584 h -0.197556 l 0.409222,-0.4120444 0.406401,0.4120444 h -0.200378 v 0.1326445 h 0.572911 V 6.4207584 h -0.1778 l -0.508,-0.5023556 0.443089,-0.4459111 h 0.172155 V 5.3398472 h -0.519289 v 0.1326445 h 0.163689 L 25.108434,5.8252695 24.755657,5.4724917 h 0.172155 V 5.3398472 Z" />
      <path
         inkscape:connector-curvature="0"
         id="path3729"
         style="font-style:normal;font-variant:normal;font-weight:normal;font-stretch:normal;font-size:2.82222247px;font-family:Courier;-inkscape-font-specification:'Courier, Normal';font-variant-ligatures:normal;font-variant-caps:normal;font-variant-numeric:normal;font-feature-settings:normal;text-align:start;writing-mode:lr-tb;text-anchor:start;stroke-width:0.26458335px"
         d="m 26.26162,4.8685361 0.01411,0.1298222 0.460023,-0.033867 V 6.4207581 H 26.244686 V 6.5534026 H 27.36793 V 6.4207584 H 26.876865 V 4.829025 Z" />
    </g>
    <g
       aria-label="Tick"
       style="font-style:normal;font-variant:normal;font-weight:normal;font-stretch:normal;font-size:3.52777791px;line-height:125%;font-family:'DejaVu Sans';-inkscape-font-specification:'DejaVu Sans, Normal';font-variant-ligatures:normal;font-variant-caps:normal;font-variant-numeric:normal;font-feature-settings:normal;text-align:start;letter-spacing:0px;word-spacing:0px;writing-mode:lr-tb;text-anchor:start;fill:#000000;fill-opacity:1;stroke:none;stroke-width:0.26458335px;stroke-linecap:butt;stroke-linejoin:miter;stroke-opacity:1"
       id="text4562">
      <path
         d="M 1.2498918,1.1197554 H 3.4254697 V 1.4125885 H 2.5125193 V 3.6915193 H 2.1628421 V 1.4125885 H 1.2498918 Z"
         style="font-style:normal;font-variant:normal;font-weight:normal;font-stretch:normal;font-size:3.52777791px;font-family:'DejaVu Sans';-inkscape-font-specification:'DejaVu Sans, Normal';font-variant-ligatures:normal;font-variant-caps:normal;font-variant-numeric:normal;font-feature-settings:normal;text-align:start;writing-mode:lr-tb;text-anchor:start;stroke-width:0.26458335px"
         id="path4564"
         inkscape:connector-curvature="0" />
      <path
         d="M 3.6390655,1.7622657 H 3.9560143 V 3.6915193 H 3.6390655 Z m 0,-0.7510308 H 3.9560143 V 1.4125885 H 3.6390655 Z"
         style="font-style:normal;font-variant:normal;font-weight:normal;font-stretch:normal;font-size:3.52777791px;font-family:'DejaVu Sans';-inkscape-font-specification:'DejaVu Sans, Normal';font-variant-ligatures:normal;font-variant-caps:normal;font-variant-numeric:normal;font-feature-settings:normal;text-align:start;writing-mode:lr-tb;text-anchor:start;stroke-width:0.26458335px"
         id="path4566"
         inkscape:connector-curvature="0" />
      <path
         d="m 6.0058462,1.8363353 v 0.2962782 q -0.1343587,-0.07407 -0.27044,-0.1102431 -0.1343587,-0.037896 -0.2721626,-0.037896 -0.308336,0 -0.4788682,0.1963704 -0.1705323,0.1946479 -0.1705323,0.5477702 0,0.3531223 0.1705323,0.5494928 0.1705322,0.1946479 0.4788682,0.1946479 0.1378039,0 0.2721626,-0.036173 0.1360813,-0.037896 0.27044,-0.1119656 v 0.2928331 q -0.1326362,0.062012 -0.2756076,0.093018 -0.141249,0.031006 -0.3014459,0.031006 -0.4358046,0 -0.6924642,-0.2738851 -0.2566597,-0.2738851 -0.2566597,-0.738973 0,-0.4719781 0.2583822,-0.7424181 0.2601047,-0.27044 0.7114123,-0.27044 0.1464165,0 0.2859429,0.031006 0.1395264,0.029283 0.27044,0.089573 z"
         style="font-style:normal;font-variant:normal;font-weight:normal;font-stretch:normal;font-size:3.52777791px;font-family:'DejaVu Sans';-inkscape-font-specification:'DejaVu Sans, Normal';font-variant-ligatures:normal;font-variant-caps:normal;font-variant-numeric:normal;font-feature-settings:normal;text-align:start;writing-mode:lr-tb;text-anchor:start;stroke-width:0.26458335px"
         id="path4568"
         inkscape:connector-curvature="0" />
      <path
         d="M 6.5484488,1.0112349 H 6.8671201 V 2.5942563 L 7.8127989,1.7622657 H 8.2175976 L 7.1944042,2.6648808 8.2606613,3.6915193 H 7.8472498 L 6.8671201,2.7492856 V 3.6915193 H 6.5484488 Z"
         style="font-style:normal;font-variant:normal;font-weight:normal;font-stretch:normal;font-size:3.52777791px;font-family:'DejaVu Sans';-inkscape-font-specification:'DejaVu Sans, Normal';font-variant-ligatures:normal;font-variant-caps:normal;font-variant-numeric:normal;font-feature-settings:normal;text-align:start;writing-mode:lr-tb;text-anchor:start;stroke-width:0.26458335px"
         id="path4570"
         inkscape:connector-curvature="0" />
    </g>
  </g>
  <g
     id="g3970"
     transform="translate(0,1.852084)">
    <g
       aria-label="1/1"
       style="font-style:normal;font-variant:normal;font-weight:normal;font-stretch:normal;font-size:3.52777791px;line-height:1.25;font-family:'DejaVu Sans';-inkscape-font-specification:'DejaVu Sans, Normal';font-variant-ligatures:normal;font-variant-caps:normal;font-variant-numeric:normal;font-feature-settings:normal;text-align:start;letter-spacing:0px;word-spacing:0px;writing-mode:lr-tb;text-anchor:start;fill:#000000;fill-opacity:1;stroke:none;stroke-width:0.26458335"
       id="text63">
      <path
         d="m 4.0187041,40.390303 h 0.5684408 v -1.961982 l -0.6183946,0.124023 v -0.316948 l 0.6149495,-0.124024 h 0.3479547 v 2.278931 h 0.5684408 v 0.292833 H 4.0187041 Z"
         style="font-style:normal;font-variant:normal;font-weight:normal;font-stretch:normal;font-size:3.52777791px;font-family:'DejaVu Sans';-inkscape-font-specification:'DejaVu Sans, Normal';font-variant-ligatures:normal;font-variant-caps:normal;font-variant-numeric:normal;font-feature-settings:normal;text-align:start;writing-mode:lr-tb;text-anchor:start;stroke-width:0.26458335"
         id="path119" />
      <path
         d="M 6.7231041,38.111372 H 7.0159372 L 6.1202124,41.01042 H 5.8273792 Z"
         style="font-style:normal;font-variant:normal;font-weight:normal;font-stretch:normal;font-size:3.52777791px;font-family:'DejaVu Sans';-inkscape-font-specification:'DejaVu Sans, Normal';font-variant-ligatures:normal;font-variant-caps:normal;font-variant-numeric:normal;font-feature-settings:normal;text-align:start;writing-mode:lr-tb;text-anchor:start;stroke-width:0.26458335"
         id="path121" />
      <path
         d="m 7.4569094,40.390303 h 0.5684408 v -1.961982 l -0.6183947,0.124023 v -0.316948 l 0.6149496,-0.124024 h 0.3479546 v 2.278931 h 0.5684408 v 0.292833 H 7.4569094 Z"
         style="font-style:normal;font-variant:normal;font-weight:normal;font-stretch:normal;font-size:3.52777791px;font-family:'DejaVu Sans';-inkscape-font-specification:'DejaVu Sans, Normal';font-variant-ligatures:normal;font-variant-caps:normal;font-variant-numeric:normal;font-feature-settings:normal;text-align:start;writing-mode:lr-tb;text-anchor:start;stroke-width:0.26458335"
         id="path123" />
    </g>
    <g
       aria-label="1/2"
       style="font-style:normal;font-variant:normal;font-weight:normal;font-stretch:normal;font-size:3.52777791px;line-height:1.25;font-family:'DejaVu Sans';-inkscape-font-specification:'DejaVu Sans, Normal';font-variant-ligatures:normal;font-variant-caps:normal;font-variant-numeric:normal;font-feature-settings:normal;text-align:start;letter-spacing:0px;word-spacing:0px;writing-mode:lr-tb;text-anchor:start;fill:#000000;fill-opacity:1;stroke:none;stroke-width:0.26458335"
       id="text67">
      <path
         d="m 4.0187041,48.327803 h 0.5684408 v -1.961982 l -0.6183946,0.124023 v -0.316948 l 0.6149495,-0.124024 h 0.3479547 v 2.278931 h 0.5684408 v 0.292833 H 4.0187041 Z"
         style="font-style:normal;font-variant:normal;font-weight:normal;font-stretch:normal;font-size:3.52777791px;font-family:'DejaVu Sans';-inkscape-font-specification:'DejaVu Sans, Normal';font-variant-ligatures:normal;font-variant-caps:normal;font-variant-numeric:normal;font-feature-settings:normal;text-align:start;writing-mode:lr-tb;text-anchor:start;stroke-width:0.26458335"
         id="path126" />
      <path
         d="M 6.7231041,46.048872 H 7.0159372 L 6.1202124,48.94792 H 5.8273792 Z"
         style="font-style:normal;font-variant:normal;font-weight:normal;font-stretch:normal;font-size:3.52777791px;font-family:'DejaVu Sans';-inkscape-font-specification:'DejaVu Sans, Normal';font-variant-ligatures:normal;font-variant-caps:normal;font-variant-numeric:normal;font-feature-settings:normal;text-align:start;writing-mode:lr-tb;text-anchor:start;stroke-width:0.26458335"
         id="path128" />
      <path
         d="m 7.6963435,48.327803 h 1.2143962 v 0.292833 H 7.2777644 v -0.292833 q 0.198093,-0.204983 0.5391575,-0.549493 0.342787,-0.346232 0.4306369,-0.44614 0.1670872,-0.187757 0.232544,-0.316949 0.067179,-0.130913 0.067179,-0.256659 0,-0.204983 -0.144694,-0.334174 -0.1429714,-0.129192 -0.3737928,-0.129192 -0.1636421,0 -0.3462322,0.05685 -0.1808675,0.05684 -0.3875732,0.172254 v -0.351399 q 0.2101508,-0.08441 0.3927409,-0.127469 0.1825901,-0.04306 0.3341743,-0.04306 0.3996311,0 0.6373427,0.199816 0.2377115,0.199815 0.2377115,0.53399 0,0.158474 -0.060289,0.301446 -0.058567,0.141248 -0.2153185,0.334174 -0.043064,0.04995 -0.2738851,0.289388 -0.2308214,0.237711 -0.6511231,0.666626 z"
         style="font-style:normal;font-variant:normal;font-weight:normal;font-stretch:normal;font-size:3.52777791px;font-family:'DejaVu Sans';-inkscape-font-specification:'DejaVu Sans, Normal';font-variant-ligatures:normal;font-variant-caps:normal;font-variant-numeric:normal;font-feature-settings:normal;text-align:start;writing-mode:lr-tb;text-anchor:start;stroke-width:0.26458335"
         id="path130" />
    </g>
    <g
       aria-label="1/4"
       style="font-style:normal;font-variant:normal;font-weight:normal;font-stretch:normal;font-size:3.52777791px;line-height:1.25;font-family:'DejaVu Sans';-inkscape-font-specification:'DejaVu Sans, Normal';font-variant-ligatures:normal;font-variant-caps:normal;font-variant-numeric:normal;font-feature-settings:normal;text-align:start;letter-spacing:0px;word-spacing:0px;writing-mode:lr-tb;text-anchor:start;fill:#000000;fill-opacity:1;stroke:none;stroke-width:0.26458335"
       id="text67-1">
      <path
         d="m 4.0187041,56.265303 h 0.5684408 v -1.961982 l -0.6183946,0.124023 v -0.316948 l 0.6149495,-0.124024 h 0.3479547 v 2.278931 h 0.5684408 v 0.292833 H 4.0187041 Z"
         style="font-style:normal;font-variant:normal;font-weight:normal;font-stretch:normal;font-size:3.52777791px;font-family:'DejaVu Sans';-inkscape-font-specification:'DejaVu Sans, Normal';font-variant-ligatures:normal;font-variant-caps:normal;font-variant-numeric:normal;font-feature-settings:normal;text-align:start;writing-mode:lr-tb;text-anchor:start;stroke-width:0.26458335"
         id="path133" />
      <path
         d="M 6.7231041,53.986372 H 7.0159372 L 6.1202124,56.88542 H 5.8273792 Z"
         style="font-style:normal;font-variant:normal;font-weight:normal;font-stretch:normal;font-size:3.52777791px;font-family:'DejaVu Sans';-inkscape-font-specification:'DejaVu Sans, Normal';font-variant-ligatures:normal;font-variant-caps:normal;font-variant-numeric:normal;font-feature-settings:normal;text-align:start;writing-mode:lr-tb;text-anchor:start;stroke-width:0.26458335"
         id="path135" />
      <path
         d="m 8.3526342,54.289541 -0.8784993,1.37287 h 0.8784993 z m -0.091295,-0.303169 h 0.4375272 v 1.676039 H 9.065769 v 0.289388 H 8.6988664 v 0.606337 H 8.3526342 V 55.951799 H 7.191637 v -0.335897 z"
         style="font-style:normal;font-variant:normal;font-weight:normal;font-stretch:normal;font-size:3.52777791px;font-family:'DejaVu Sans';-inkscape-font-specification:'DejaVu Sans, Normal';font-variant-ligatures:normal;font-variant-caps:normal;font-variant-numeric:normal;font-feature-settings:normal;text-align:start;writing-mode:lr-tb;text-anchor:start;stroke-width:0.26458335"
         id="path137" />
    </g>
    <g
       aria-label="1/8"
       style="font-style:normal;font-variant:normal;font-weight:normal;font-stretch:normal;font-size:3.52777791px;line-height:1.25;font-family:'DejaVu Sans';-inkscape-font-specification:'DejaVu Sans, Normal';font-variant-ligatures:normal;font-variant-caps:normal;font-variant-numeric:normal;font-feature-settings:normal;text-align:start;letter-spacing:0px;word-spacing:0px;writing-mode:lr-tb;text-anchor:start;fill:#000000;fill-opacity:1;stroke:none;stroke-width:0.26458335"
       id="text67-0">
      <path
         d="m 4.0187041,64.202803 h 0.5684408 v -1.961982 l -0.6183946,0.124023 v -0.316948 l 0.6149495,-0.124024 h 0.3479547 v 2.278931 h 0.5684408 v 0.292833 H 4.0187041 Z"
         style="font-style:normal;font-variant:normal;font-weight:normal;font-stretch:normal;font-size:3.52777791px;font-family:'DejaVu Sans';-inkscape-font-specification:'DejaVu Sans, Normal';font-variant-ligatures:normal;font-variant-caps:normal;font-variant-numeric:normal;font-feature-settings:normal;text-align:start;writing-mode:lr-tb;text-anchor:start;stroke-width:0.26458335"
         id="path140" />
      <path
         d="M 6.7231041,61.923872 H 7.0159372 L 6.1202124,64.82292 H 5.8273792 Z"
         style="font-style:normal;font-variant:normal;font-weight:normal;font-stretch:normal;font-size:3.52777791px;font-family:'DejaVu Sans';-inkscape-font-specification:'DejaVu Sans, Normal';font-variant-ligatures:normal;font-variant-caps:normal;font-variant-numeric:normal;font-feature-settings:normal;text-align:start;writing-mode:lr-tb;text-anchor:start;stroke-width:0.26458335"
         id="path142" />
      <path
         d="m 8.1407609,63.27435 q -0.2480469,0 -0.3910184,0.132636 -0.1412489,0.132636 -0.1412489,0.36518 0,0.232544 0.1412489,0.36518 0.1429715,0.132636 0.3910184,0.132636 0.2480468,0 0.3910183,-0.132636 0.1429715,-0.134359 0.1429715,-0.36518 0,-0.232544 -0.1429715,-0.36518 Q 8.3905303,63.27435 8.1407609,63.27435 Z M 7.7928062,63.12621 Q 7.568875,63.071089 7.443129,62.917782 7.3191056,62.764475 7.3191056,62.543989 q 0,-0.308336 0.2187635,-0.487481 0.2204861,-0.179145 0.6028918,-0.179145 0.3841281,0 0.6028917,0.179145 0.2187636,0.179145 0.2187636,0.487481 0,0.220486 -0.125746,0.373793 -0.1240235,0.153307 -0.3462321,0.208428 0.2514919,0.05857 0.3910183,0.229099 0.1412489,0.170533 0.1412489,0.416857 0,0.373793 -0.2290988,0.573608 -0.2273763,0.199816 -0.6528456,0.199816 -0.4254693,0 -0.6545682,-0.199816 -0.2273763,-0.199815 -0.2273763,-0.573608 0,-0.246324 0.1412489,-0.416857 0.1412489,-0.170532 0.3927409,-0.229099 z M 7.6653377,62.576718 q 0,0.199815 0.1240234,0.311781 0.125746,0.111965 0.3513998,0.111965 0.2239312,0 0.3496772,-0.111965 0.1274685,-0.111966 0.1274685,-0.311781 0,-0.199816 -0.1274685,-0.311781 -0.125746,-0.111966 -0.3496772,-0.111966 -0.2256538,0 -0.3513998,0.111966 -0.1240234,0.111965 -0.1240234,0.311781 z"
         style="font-style:normal;font-variant:normal;font-weight:normal;font-stretch:normal;font-size:3.52777791px;font-family:'DejaVu Sans';-inkscape-font-specification:'DejaVu Sans, Normal';font-variant-ligatures:normal;font-variant-caps:normal;font-variant-numeric:normal;font-feature-settings:normal;text-align:start;writing-mode:lr-tb;text-anchor:start;stroke-width:0.26458335"
         id="path144" />
    </g>
    <g
       aria-label="1/12"
       style="font-style:normal;font-variant:normal;font-weight:normal;font-stretch:normal;font-size:3.52777791px;line-height:1.25;font-family:'DejaVu Sans';-inkscape-font-specification:'DejaVu Sans, Normal';font-variant-ligatures:normal;font-variant-caps:normal;font-variant-numeric:normal;font-feature-settings:normal;text-align:start;letter-spacing:0px;word-spacing:0px;writing-mode:lr-tb;text-anchor:start;fill:#000000;fill-opacity:1;stroke:none;stroke-width:0.26458335"
       id="text67-11">
      <path
         d="m 4.0187041,72.140303 h 0.5684408 v -1.961982 l -0.6183946,0.124023 v -0.316948 l 0.6149495,-0.124024 h 0.3479547 v 2.278931 h 0.5684408 v 0.292833 H 4.0187041 Z"
         style="font-style:normal;font-variant:normal;font-weight:normal;font-stretch:normal;font-size:3.52777791px;font-family:'DejaVu Sans';-inkscape-font-specification:'DejaVu Sans, Normal';font-variant-ligatures:normal;font-variant-caps:normal;font-variant-numeric:normal;font-feature-settings:normal;text-align:start;writing-mode:lr-tb;text-anchor:start;stroke-width:0.26458335"
         id="path147" />
      <path
         d="M 6.7231041,69.861372 H 7.0159372 L 6.1202124,72.76042 H 5.8273792 Z"
         style="font-style:normal;font-variant:normal;font-weight:normal;font-stretch:normal;font-size:3.52777791px;font-family:'DejaVu Sans';-inkscape-font-specification:'DejaVu Sans, Normal';font-variant-ligatures:normal;font-variant-caps:normal;font-variant-numeric:normal;font-feature-settings:normal;text-align:start;writing-mode:lr-tb;text-anchor:start;stroke-width:0.26458335"
         id="path149" />
      <path
         d="m 7.4569094,72.140303 h 0.5684408 v -1.961982 l -0.6183947,0.124023 v -0.316948 l 0.6149496,-0.124024 h 0.3479546 v 2.278931 h 0.5684408 v 0.292833 H 7.4569094 Z"
         style="font-style:normal;font-variant:normal;font-weight:normal;font-stretch:normal;font-size:3.52777791px;font-family:'DejaVu Sans';-inkscape-font-specification:'DejaVu Sans, Normal';font-variant-ligatures:normal;font-variant-caps:normal;font-variant-numeric:normal;font-feature-settings:normal;text-align:start;writing-mode:lr-tb;text-anchor:start;stroke-width:0.26458335"
         id="path151" />
      <path
         d="m 9.942546,72.140303 h 1.214396 v 0.292833 H 9.5239669 v -0.292833 q 0.198093,-0.204983 0.5391571,-0.549493 0.342787,-0.346232 0.430637,-0.44614 0.167087,-0.187757 0.232544,-0.316949 0.06718,-0.130913 0.06718,-0.256659 0,-0.204983 -0.144694,-0.334174 -0.142972,-0.129192 -0.373793,-0.129192 -0.163642,0 -0.3462324,0.05684 -0.1808675,0.05684 -0.3875732,0.172254 v -0.351399 q 0.2101508,-0.0844 0.3927409,-0.127469 0.1825897,-0.04306 0.3341747,-0.04306 0.399631,0 0.637342,0.199816 0.237712,0.199815 0.237712,0.53399 0,0.158474 -0.06029,0.301446 -0.05857,0.141248 -0.215319,0.334174 -0.04306,0.04995 -0.273885,0.289388 -0.230821,0.237711 -0.651123,0.666626 z"
         style="font-style:normal;font-variant:normal;font-weight:normal;font-stretch:normal;font-size:3.52777791px;font-family:'DejaVu Sans';-inkscape-font-specification:'DejaVu Sans, Normal';font-variant-ligatures:normal;font-variant-caps:normal;font-variant-numeric:normal;font-feature-settings:normal;text-align:start;writing-mode:lr-tb;text-anchor:start;stroke-width:0.26458335"
         id="path153" />
    </g>
    <g
       aria-label="1/16"
       style="font-style:normal;font-variant:normal;font-weight:normal;font-stretch:normal;font-size:3.52777791px;line-height:1.25;font-family:'DejaVu Sans';-inkscape-font-specification:'DejaVu Sans, Normal';font-variant-ligatures:normal;font-variant-caps:normal;font-variant-numeric:normal;font-feature-settings:normal;text-align:start;letter-spacing:0px;word-spacing:0px;writing-mode:lr-tb;text-anchor:start;fill:#000000;fill-opacity:1;stroke:none;stroke-width:0.26458335"
       id="text67-3">
      <path
         d="m 4.0187041,80.077803 h 0.5684408 v -1.961982 l -0.6183946,0.124023 v -0.316948 l 0.6149495,-0.124024 h 0.3479547 v 2.278931 h 0.5684408 v 0.292833 H 4.0187041 Z"
         style="font-style:normal;font-variant:normal;font-weight:normal;font-stretch:normal;font-size:3.52777791px;font-family:'DejaVu Sans';-inkscape-font-specification:'DejaVu Sans, Normal';font-variant-ligatures:normal;font-variant-caps:normal;font-variant-numeric:normal;font-feature-settings:normal;text-align:start;writing-mode:lr-tb;text-anchor:start;stroke-width:0.26458335"
         id="path156" />
      <path
         d="M 6.7231041,77.798872 H 7.0159372 L 6.1202124,80.69792 H 5.8273792 Z"
         style="font-style:normal;font-variant:normal;font-weight:normal;font-stretch:normal;font-size:3.52777791px;font-family:'DejaVu Sans';-inkscape-font-specification:'DejaVu Sans, Normal';font-variant-ligatures:normal;font-variant-caps:normal;font-variant-numeric:normal;font-feature-settings:normal;text-align:start;writing-mode:lr-tb;text-anchor:start;stroke-width:0.26458335"
         id="path158" />
      <path
         d="m 7.4569094,80.077803 h 0.5684408 v -1.961982 l -0.6183947,0.124023 v -0.316948 l 0.6149496,-0.124024 h 0.3479546 v 2.278931 h 0.5684408 v 0.292833 H 7.4569094 Z"
         style="font-style:normal;font-variant:normal;font-weight:normal;font-stretch:normal;font-size:3.52777791px;font-family:'DejaVu Sans';-inkscape-font-specification:'DejaVu Sans, Normal';font-variant-ligatures:normal;font-variant-caps:normal;font-variant-numeric:normal;font-feature-settings:normal;text-align:start;writing-mode:lr-tb;text-anchor:start;stroke-width:0.26458335"
         id="path160" />
      <path
         d="m 10.430027,78.946089 q -0.234266,0 -0.37207,0.160197 -0.1360816,0.160197 -0.1360816,0.43925 0,0.27733 0.1360816,0.439249 0.137804,0.160197 0.37207,0.160197 0.234267,0 0.370348,-0.160197 0.137804,-0.161919 0.137804,-0.439249 0,-0.279053 -0.137804,-0.43925 -0.136081,-0.160197 -0.370348,-0.160197 z m 0.690742,-1.090373 v 0.316949 q -0.130914,-0.06201 -0.265273,-0.09474 -0.132636,-0.03273 -0.263549,-0.03273 -0.34451,0 -0.5271,0.232544 -0.1808676,0.232544 -0.2067058,0.7028 0.1016303,-0.149862 0.2549368,-0.229099 0.153307,-0.08096 0.33762,-0.08096 0.387573,0 0.611504,0.235989 0.225654,0.234267 0.225654,0.639066 0,0.396186 -0.234267,0.63562 -0.234266,0.239434 -0.623562,0.239434 -0.4461399,0 -0.6821289,-0.341065 -0.2359891,-0.342787 -0.2359891,-0.992187 0,-0.609782 0.2893881,-0.971517 0.2893879,-0.363458 0.7768689,-0.363458 0.130914,0 0.26355,0.02584 0.134359,0.02584 0.279053,0.07751 z"
         style="font-style:normal;font-variant:normal;font-weight:normal;font-stretch:normal;font-size:3.52777791px;font-family:'DejaVu Sans';-inkscape-font-specification:'DejaVu Sans, Normal';font-variant-ligatures:normal;font-variant-caps:normal;font-variant-numeric:normal;font-feature-settings:normal;text-align:start;writing-mode:lr-tb;text-anchor:start;stroke-width:0.26458335"
         id="path162" />
    </g>
    <g
       aria-label="1/24"
       style="font-style:normal;font-variant:normal;font-weight:normal;font-stretch:normal;font-size:3.52777791px;line-height:1.25;font-family:'DejaVu Sans';-inkscape-font-specification:'DejaVu Sans, Normal';font-variant-ligatures:normal;font-variant-caps:normal;font-variant-numeric:normal;font-feature-settings:normal;text-align:start;letter-spacing:0px;word-spacing:0px;writing-mode:lr-tb;text-anchor:start;fill:#000000;fill-opacity:1;stroke:none;stroke-width:0.26458335"
       id="text67-8">
      <path
         d="m 4.0187041,88.015303 h 0.5684408 v -1.961982 l -0.6183946,0.124023 v -0.316948 l 0.6149495,-0.124024 h 0.3479547 v 2.278931 h 0.5684408 v 0.292833 H 4.0187041 Z"
         style="font-style:normal;font-variant:normal;font-weight:normal;font-stretch:normal;font-size:3.52777791px;font-family:'DejaVu Sans';-inkscape-font-specification:'DejaVu Sans, Normal';font-variant-ligatures:normal;font-variant-caps:normal;font-variant-numeric:normal;font-feature-settings:normal;text-align:start;writing-mode:lr-tb;text-anchor:start;stroke-width:0.26458335"
         id="path165" />
      <path
         d="M 6.7231041,85.736372 H 7.0159372 L 6.1202124,88.63542 H 5.8273792 Z"
         style="font-style:normal;font-variant:normal;font-weight:normal;font-stretch:normal;font-size:3.52777791px;font-family:'DejaVu Sans';-inkscape-font-specification:'DejaVu Sans, Normal';font-variant-ligatures:normal;font-variant-caps:normal;font-variant-numeric:normal;font-feature-settings:normal;text-align:start;writing-mode:lr-tb;text-anchor:start;stroke-width:0.26458335"
         id="path167" />
      <path
         d="m 7.6963435,88.015303 h 1.2143962 v 0.292833 H 7.2777644 v -0.292833 q 0.198093,-0.204983 0.5391575,-0.549493 0.342787,-0.346232 0.4306369,-0.44614 0.1670872,-0.187757 0.232544,-0.316949 0.067179,-0.130913 0.067179,-0.256659 0,-0.204983 -0.144694,-0.334174 -0.1429714,-0.129192 -0.3737928,-0.129192 -0.1636421,0 -0.3462322,0.05684 -0.1808675,0.05684 -0.3875732,0.172254 v -0.351399 q 0.2101508,-0.0844 0.3927409,-0.127469 0.1825901,-0.04306 0.3341743,-0.04306 0.3996311,0 0.6373427,0.199816 0.2377115,0.199815 0.2377115,0.53399 0,0.158474 -0.060289,0.301446 -0.058567,0.141248 -0.2153185,0.334174 -0.043064,0.04995 -0.2738851,0.289388 -0.2308214,0.237711 -0.6511231,0.666626 z"
         style="font-style:normal;font-variant:normal;font-weight:normal;font-stretch:normal;font-size:3.52777791px;font-family:'DejaVu Sans';-inkscape-font-specification:'DejaVu Sans, Normal';font-variant-ligatures:normal;font-variant-caps:normal;font-variant-numeric:normal;font-feature-settings:normal;text-align:start;writing-mode:lr-tb;text-anchor:start;stroke-width:0.26458335"
         id="path169" />
      <path
         d="m 10.598837,86.039541 -0.8784997,1.37287 h 0.8784997 z m -0.09129,-0.303169 h 0.437527 v 1.676039 h 0.366903 v 0.289388 h -0.366903 v 0.606337 H 10.598837 V 87.701799 H 9.4378395 v -0.335897 z"
         style="font-style:normal;font-variant:normal;font-weight:normal;font-stretch:normal;font-size:3.52777791px;font-family:'DejaVu Sans';-inkscape-font-specification:'DejaVu Sans, Normal';font-variant-ligatures:normal;font-variant-caps:normal;font-variant-numeric:normal;font-feature-settings:normal;text-align:start;writing-mode:lr-tb;text-anchor:start;stroke-width:0.26458335"
         id="path171" />
    </g>
  </g>
  <rect
     style="fill:#000000;fill-opacity:1;stroke:#969696;stroke-width:0.19347042;stroke-opacity:1"
     id="rect3776"
     width="19.914864"
     height="8.8023634"
     x="1.9488187"
     y="10.944653" />
  <g
     aria-label="BPM"
     style="font-style:normal;font-variant:normal;font-weight:normal;font-stretch:normal;font-size:3.52777791px;line-height:1.25;font-family:'DejaVu Sans';-inkscape-font-specification:'DejaVu Sans, Normal';font-variant-ligatures:normal;font-variant-caps:normal;font-variant-numeric:normal;font-feature-settings:normal;text-align:start;letter-spacing:0px;word-spacing:0px;writing-mode:lr-tb;text-anchor:start;fill:#000000;fill-opacity:1;stroke:none;stroke-width:0.26458335"
     id="text4113"
     transform="translate(0,3.1750002)">
    <path
       d="m 8.8146215,30.786403 v 0.942234 H 9.372727 q 0.2807753,0 0.415134,-0.115411 0.1360813,-0.117133 0.1360813,-0.356567 0,-0.241157 -0.1360813,-0.354845 -0.1343587,-0.115411 -0.415134,-0.115411 z m 0,-1.057644 v 0.775146 h 0.5150418 q 0.2549371,0 0.3789605,-0.09474 0.125746,-0.09646 0.125746,-0.292833 0,-0.194648 -0.125746,-0.29111 -0.1240234,-0.09646 -0.3789605,-0.09646 z M 8.4666669,29.442816 h 0.8888346 q 0.3979086,0 0.6132271,0.165364 0.2153184,0.165365 0.2153184,0.470256 0,0.235989 -0.110243,0.375515 -0.1102431,0.139527 -0.323839,0.173978 0.25666,0.05512 0.397909,0.230821 0.142971,0.173978 0.142971,0.435805 0,0.344509 -0.234267,0.532267 Q 9.822312,32.01458 9.3899525,32.01458 H 8.4666669 Z"
       style="font-style:normal;font-variant:normal;font-weight:normal;font-stretch:normal;font-size:3.52777791px;font-family:'DejaVu Sans';-inkscape-font-specification:'DejaVu Sans, Normal';font-variant-ligatures:normal;font-variant-caps:normal;font-variant-numeric:normal;font-feature-settings:normal;text-align:start;writing-mode:lr-tb;text-anchor:start;stroke-width:0.26458335"
       id="path4115"
       inkscape:connector-curvature="0" />
    <path
       d="m 11.233079,29.728759 v 0.966349 h 0.437527 q 0.242879,0 0.375515,-0.125746 0.132636,-0.125746 0.132636,-0.35829 0,-0.230821 -0.132636,-0.356567 -0.132636,-0.125746 -0.375515,-0.125746 z m -0.347955,-0.285943 h 0.785482 q 0.432359,0 0.652845,0.19637 0.222209,0.194648 0.222209,0.571886 0,0.380683 -0.222209,0.575331 -0.220486,0.194648 -0.652845,0.194648 h -0.437527 v 1.033529 h -0.347955 z"
       style="font-style:normal;font-variant:normal;font-weight:normal;font-stretch:normal;font-size:3.52777791px;font-family:'DejaVu Sans';-inkscape-font-specification:'DejaVu Sans, Normal';font-variant-ligatures:normal;font-variant-caps:normal;font-variant-numeric:normal;font-feature-settings:normal;text-align:start;writing-mode:lr-tb;text-anchor:start;stroke-width:0.26458335"
       id="path4117"
       inkscape:connector-curvature="0" />
    <path
       d="m 13.014193,29.442816 h 0.518487 l 0.656291,1.750108 0.659736,-1.750108 h 0.518487 v 2.571764 h -0.339342 v -2.25826 l -0.663181,1.763889 H 14.014994 L 13.351813,29.75632 v 2.25826 h -0.33762 z"
       style="font-style:normal;font-variant:normal;font-weight:normal;font-stretch:normal;font-size:3.52777791px;font-family:'DejaVu Sans';-inkscape-font-specification:'DejaVu Sans, Normal';font-variant-ligatures:normal;font-variant-caps:normal;font-variant-numeric:normal;font-feature-settings:normal;text-align:start;writing-mode:lr-tb;text-anchor:start;stroke-width:0.26458335"
       id="path4119"
       inkscape:connector-curvature="0" />
  </g>
</svg>
